<?xml version="1.0" encoding="UTF-8" standalone="no"?>
<svg
   xmlns:dc="http://purl.org/dc/elements/1.1/"
   xmlns:cc="http://creativecommons.org/ns#"
   xmlns:rdf="http://www.w3.org/1999/02/22-rdf-syntax-ns#"
   xmlns:svg="http://www.w3.org/2000/svg"
   xmlns="http://www.w3.org/2000/svg"
   xmlns:sodipodi="http://sodipodi.sourceforge.net/DTD/sodipodi-0.dtd"
   xmlns:inkscape="http://www.inkscape.org/namespaces/inkscape"
   width="512"
   height="512"
   viewBox="0 0 135.46666 135.46667"
   version="1.1"
   id="svg8"
   sodipodi:docname="EditResourceIcon.svg"
   inkscape:version="1.0.1 (3bc2e813f5, 2020-09-07)"
   inkscape:export-filename="C:\Users\Chris\Documents\NetBeansProjects\Routines\src\Routines\Images\EditResourceIcon.png"
   inkscape:export-xdpi="96.000008"
   inkscape:export-ydpi="96.000008">
  <defs
     id="defs2">
    <inkscape:path-effect
       effect="bspline"
       id="path-effect832"
       is_visible="true"
       lpeversion="1"
       weight="33.333333"
       steps="2"
       helper_size="0"
       apply_no_weight="true"
       apply_with_weight="true"
       only_selected="false" />
  </defs>
  <sodipodi:namedview
     id="base"
     pagecolor="#737373"
     bordercolor="#000000"
     borderopacity="1"
     inkscape:pageopacity="0"
     inkscape:pageshadow="2"
     inkscape:zoom="0.7"
     inkscape:cx="250"
     inkscape:cy="257.14286"
     inkscape:document-units="px"
     inkscape:current-layer="layer1"
     inkscape:document-rotation="0"
     showgrid="false"
     units="px"
     inkscape:pagecheckerboard="true"
     inkscape:window-width="1366"
     inkscape:window-height="705"
     inkscape:window-x="-8"
     inkscape:window-y="-8"
     inkscape:window-maximized="1"
     inkscape:snap-nodes="false"
     inkscape:snap-others="false" />
  <metadata
     id="metadata5">
    <rdf:RDF>
      <cc:Work
         rdf:about="">
        <dc:format>image/svg+xml</dc:format>
        <dc:type
           rdf:resource="http://purl.org/dc/dcmitype/StillImage" />
        <dc:title></dc:title>
      </cc:Work>
    </rdf:RDF>
  </metadata>
  <g
     inkscape:label="Layer 1"
     inkscape:groupmode="layer"
     id="layer1">
    <path
       style="fill:#ffccaa;stroke:none;stroke-width:0.329875px;stroke-linecap:butt;stroke-linejoin:miter;stroke-opacity:1"
       d="M 67.733334,2.5346534e-6 51.460643,4.4069804 41.261236,14.466388 l -3.708875,15.328616 2.781657,16.286657 10.199406,10.059406 6.026923,8.622349 v 13.41254 L 47.751768,87.277322 17.153548,92.546535 4.1724838,105.95908 0,135.46666 h 67.733334 z"
       id="path840"
       sodipodi:nodetypes="cccccccccccccc" />
    <path
       style="fill:#ffccaa;stroke:none;stroke-width:0.329875px;stroke-linecap:butt;stroke-linejoin:miter;stroke-opacity:1"
       d="M 67.733334,0 84.006025,4.4069779 94.205434,14.466385 97.914306,29.795001 95.132652,46.081659 84.933246,56.141064 78.90632,64.763413 v 13.412541 l 8.808579,9.101365 30.598231,5.269214 12.98106,13.412547 4.17247,29.50758 H 67.733334 Z"
       id="path840-0"
       sodipodi:nodetypes="cccccccccccccc" />
    <path
       style="fill:#ffff00;stroke:#ffff00;stroke-width:22.4463;stroke-linecap:butt;stroke-linejoin:miter;stroke-miterlimit:4;stroke-dasharray:none;stroke-opacity:1"
       d="M 86.821145,56.000023 117.80891,24.164484"
       id="path840-2"
       sodipodi:nodetypes="cc" />
    <path
       style="fill:#ff8080;stroke:none;stroke-width:0.264583px;stroke-linecap:butt;stroke-linejoin:miter;stroke-opacity:1"
       d="m 112.2264,13.97185 16.12347,15.3864 2.39549,-2.487621 v -0.09213 l 0.36853,-3.593231 -4.0539,-6.633658 -3.7775,-3.316829 -6.54152,-1.842682 z"
       id="path2945" />
    <path
       style="fill:#c8b7b7;stroke:none;stroke-width:0.264583px;stroke-linecap:butt;stroke-linejoin:miter;stroke-opacity:1"
       d="m 112.2264,13.97185 16.12347,15.3864 -2.94829,3.132561 -16.21561,-15.662803 z"
       id="path2947" />
    <path
       style="fill:#d4aa00;stroke:none;stroke-width:0.264583px;stroke-linecap:butt;stroke-linejoin:miter;stroke-opacity:1"
       d="m 79.344523,48.155699 -0.122568,5.638106 3.064189,-1.348242 -3.431891,8.947433 7.966892,-5.392973 -0.735407,4.412432 5.392973,-2.696485 -1.961081,8.457163 6.373516,-2.941622 -21.449328,11.398785 -3.55446,-3.06419 z"
       id="path2949" />
    <path
       style="fill:#241c1c;stroke:#000000;stroke-width:0.264583px;stroke-linecap:butt;stroke-linejoin:miter;stroke-opacity:1"
       d="m 69.416547,76.101104 5.025271,-1.470808 -3.55446,-3.06419 z"
       id="path2951" />
    <path
       style="fill:#ffff00;fill-opacity:1;stroke:none;stroke-width:0.264583px;stroke-linecap:butt;stroke-linejoin:miter;stroke-opacity:1"
       d="m 79.344523,48.155699 16.546623,15.075812 -6.373516,2.941622 1.961081,-8.457163 -5.392973,2.696485 0.735407,-4.412432 -7.966892,5.392973 3.431891,-8.947433 -3.064189,1.348242 z"
       id="path2953" />
  </g>
</svg>
