<?xml version="1.0" encoding="UTF-8" standalone="no"?>
<svg
   xmlns:dc="http://purl.org/dc/elements/1.1/"
   xmlns:cc="http://creativecommons.org/ns#"
   xmlns:rdf="http://www.w3.org/1999/02/22-rdf-syntax-ns#"
   xmlns:svg="http://www.w3.org/2000/svg"
   xmlns="http://www.w3.org/2000/svg"
   xmlns:sodipodi="http://sodipodi.sourceforge.net/DTD/sodipodi-0.dtd"
   xmlns:inkscape="http://www.inkscape.org/namespaces/inkscape"
   width="512"
   height="512"
   viewBox="0 0 135.46666 135.46667"
   version="1.1"
   id="svg8"
   sodipodi:docname="RoutinesIcon.svg"
   inkscape:version="1.0.1 (3bc2e813f5, 2020-09-07)"
   inkscape:export-filename="C:\Users\Chris\Documents\NetBeansProjects\Routines\src\Routines\Images\RoutinesIcon.png"
   inkscape:export-xdpi="96"
   inkscape:export-ydpi="96">
  <defs
     id="defs2" />
  <sodipodi:namedview
     id="base"
     pagecolor="#737373"
     bordercolor="#000000"
     borderopacity="1"
     inkscape:pageopacity="0"
     inkscape:pageshadow="2"
     inkscape:zoom="0.7"
     inkscape:cx="284.28572"
     inkscape:cy="249.36723"
     inkscape:document-units="px"
     inkscape:current-layer="layer1"
     inkscape:document-rotation="0"
     showgrid="false"
     units="px"
     inkscape:pagecheckerboard="true"
     inkscape:window-width="1366"
     inkscape:window-height="705"
     inkscape:window-x="-8"
     inkscape:window-y="-8"
     inkscape:window-maximized="1"
     inkscape:snap-nodes="false" />
  <metadata
     id="metadata5">
    <rdf:RDF>
      <cc:Work
         rdf:about="">
        <dc:format>image/svg+xml</dc:format>
        <dc:type
           rdf:resource="http://purl.org/dc/dcmitype/StillImage" />
        <dc:title />
      </cc:Work>
    </rdf:RDF>
  </metadata>
  <g
     inkscape:label="Layer 1"
     inkscape:groupmode="layer"
     id="layer1">
    <path
       style="fill:#a05a2c;stroke:none;stroke-width:0.337743px;stroke-linecap:butt;stroke-linejoin:miter;stroke-opacity:1"
       d="M 3.4947553,2.3250505 1.8898814,132.0057 l 29.9576606,0.28596 -1.069916,-66.866966 19.793453,35.683936 16.868713,16.93682 22.584077,9.95171 25.812121,3.1382 11.23412,-4.78687 7.4894,-12.18476 v -10.87924 h -25.14303 l 0.53496,8.26822 v 0 L 93.902704,111.11754 82.668576,104.59 v 0 l -9.094294,-20.01783 -9.094286,-19.147477 18.723537,-4.786869 18.188577,-6.52755 8.55933,-8.268226 3.7447,-9.57374 L 115.30102,24.08355 109.4165,13.2043 98.182357,6.2415805 82.668572,1.8898808 Z"
       id="path873"
       sodipodi:nodetypes="cccccccccccccccccccccccccccc" />
    <rect
       style="fill:#ac9393;fill-rule:evenodd;stroke-width:1.68873;stroke-linejoin:round"
       id="rect832"
       width="11.769082"
       height="49.609375"
       x="85.878326"
       y="69.341225" />
    <rect
       style="fill:#ac9393;fill-rule:evenodd;stroke-width:1.68873;stroke-linejoin:round"
       id="rect832-9"
       width="9.5737391"
       height="60.985241"
       x="89.359039"
       y="-122.25548"
       transform="rotate(90)" />
    <rect
       style="fill:#ac9393;fill-rule:evenodd;stroke-width:1.70656;stroke-linejoin:round"
       id="rect832-8"
       width="10.634551"
       height="56.06768"
       x="127.79278"
       y="-18.199184"
       transform="matrix(0.74856628,0.66305997,-0.80112913,0.59849153,0,0)" />
    <rect
       style="fill:#ac9393;fill-rule:evenodd;stroke-width:1.70656;stroke-linejoin:round"
       id="rect832-9-6"
       width="10.820079"
       height="55.106308"
       x="4.4246192"
       y="-160.66324"
       transform="matrix(-0.80112917,0.59849148,-0.74856624,-0.66306002,0,0)" />
    <ellipse
       style="fill:#ac9393;fill-opacity:1;fill-rule:evenodd;stroke:none;stroke-width:1.68873;stroke-linejoin:round;stroke-opacity:1"
       id="path830"
       cx="91.762848"
       cy="93.493149"
       rx="25.143038"
       ry="20.235403" />
    <ellipse
       style="fill:#502d16;fill-opacity:1;fill-rule:evenodd;stroke:none;stroke-width:9.60164;stroke-linejoin:round;stroke-miterlimit:4;stroke-dasharray:none;stroke-opacity:1"
       id="path871"
       cx="91.762848"
       cy="93.928322"
       rx="17.653622"
       ry="14.143023" />
    <rect
       style="fill:#ac9393;fill-rule:evenodd;stroke-width:1.69331;stroke-linejoin:round"
       id="rect832-84"
       width="11.633718"
       height="50.459408"
       x="62.573193"
       y="-9.3168001"
       transform="matrix(0.97683822,0.21397918,-0.31426138,0.9493365,0,0)" />
    <rect
       style="fill:#ac9393;fill-rule:evenodd;stroke-width:1.69331;stroke-linejoin:round"
       id="rect832-9-4"
       width="9.7377806"
       height="60.28381"
       x="11.044028"
       y="-98.531952"
       transform="matrix(-0.3142614,0.94933649,-0.97683822,-0.21397919,0,0)" />
    <rect
       style="fill:#ac9393;fill-rule:evenodd;stroke-width:1.70083;stroke-linejoin:round"
       id="rect832-8-9"
       width="10.081724"
       height="58.746056"
       x="47.181591"
       y="-65.928246"
       transform="matrix(0.53888681,0.84237819,-0.92088701,0.38982961,0,0)" />
    <rect
       style="fill:#ac9393;fill-rule:evenodd;stroke-width:1.70083;stroke-linejoin:round"
       id="rect832-9-6-1"
       width="11.336959"
       height="52.241657"
       x="-42.223682"
       y="-78.343292"
       transform="matrix(-0.92088704,0.38982953,-0.53888671,-0.84237825,0,0)" />
    <ellipse
       style="fill:#ac9393;fill-opacity:1;fill-rule:evenodd;stroke:none;stroke-width:1.69331;stroke-linejoin:round;stroke-opacity:1"
       id="path830-4"
       cx="68.390045"
       cy="15.24898"
       rx="24.853851"
       ry="20.582129"
       transform="matrix(0.97683822,0.21397918,-0.31426138,0.9493365,0,0)" />
    <ellipse
       style="fill:#502d16;fill-opacity:1;fill-rule:evenodd;stroke:none;stroke-width:9.62771;stroke-linejoin:round;stroke-miterlimit:4;stroke-dasharray:none;stroke-opacity:1"
       id="path871-6"
       cx="68.390045"
       cy="15.691606"
       rx="17.450577"
       ry="14.385358"
       transform="matrix(0.97683822,0.21397918,-0.31426138,0.9493365,0,0)" />
    <path
       style="fill:none;stroke:#000000;stroke-width:0;stroke-linecap:butt;stroke-linejoin:miter;stroke-opacity:1;stroke-miterlimit:4;stroke-dasharray:none"
       d="M 66.901784,3.7797618 35.52976,6.8035714 24.568452,38.553572 l 36.66369,24.946427 40.065478,4.535715 23.8125,14.74107 -3.40179,28.726186 -24.190474,13.22917"
       id="path905" />
  </g>
</svg>
